<?xml version="1.0" standalone="no"?>
<svg viewBox="0 0 200 200" xmlns="http://www.w3.org/2000/svg">
  <path fill="#F2F4F8" d="M18.4,-23.8C28.1,-26.3,43.1,-29.9,56.6,-26.1C70.2,-22.4,82.3,-11.2,79.7,-1.5C77.1,8.2,59.9,16.4,49.6,25.8C39.3,35.2,35.9,45.8,28.8,53.6C21.7,61.4,10.9,66.3,2.8,61.5C-5.3,56.8,-10.6,42.2,-22.5,37.1C-34.3,32.1,-52.7,36.6,-63.8,31.9C-75,27.3,-79,13.7,-77.5,0.8C-76.1,-12,-69.3,-24,-60.8,-33.3C-52.3,-42.5,-42.1,-48.9,-31.7,-46.1C-21.3,-43.3,-10.7,-31.1,-3.2,-25.7C4.4,-20.2,8.7,-21.4,18.4,-23.8Z" transform="translate(100 100)" />
</svg>
